# Blender 4.0.2
# www.blender.org
mtllib protector.mtl
o Куб
v -1.000000 -0.030000 1.000000
v -1.000000 0.030000 1.000000
v -1.000000 -0.030000 -1.000000
v -1.000000 0.030000 -1.000000
v 1.000000 -0.030000 1.000000
v 1.000000 0.030000 1.000000
v 1.000000 -0.030000 -1.000000
v 1.000000 0.030000 -1.000000
v -0.970000 0.030000 0.970000
v -0.970000 0.030000 -0.970000
v 0.970000 0.030000 0.970000
v 0.970000 0.030000 -0.970000
v -1.000000 0.730000 1.000000
v -1.000000 0.730000 -1.000000
v 1.000000 0.730000 -1.000000
v 1.000000 0.730000 1.000000
v -0.970000 0.730000 0.970000
v -0.970000 0.730000 -0.970000
v 0.970000 0.730000 -0.970000
v 0.970000 0.730000 0.970000
v -1.000000 0.730000 1.000000
v 1.000000 0.730000 1.000000
v -1.000000 -0.030000 0.000000
v -1.000000 0.030000 0.000000
v 1.000000 -0.030000 0.000000
v 1.000000 0.030000 0.000000
v -0.970000 0.030000 0.000000
v 0.970000 0.030000 0.000000
v -1.000000 0.730000 0.000000
v 1.000000 0.730000 0.000000
v -0.970000 0.730000 0.000000
v 0.970000 0.730000 0.000000
v -1.000000 1.330000 0.000000
v -1.000000 1.330000 -1.000000
v 1.000000 1.330000 0.000000
v -0.970000 1.330000 0.000000
v -0.970893 1.329056 -0.970878
v 0.970000 1.330000 0.000000
v 0.970900 1.330000 -0.970900
v 1.000000 1.330000 -1.000000
v 0.970000 1.312000 -0.970000
v -0.970900 1.330000 0.000000
v 0.970900 1.330000 0.000000
v 0.970000 1.312000 0.000000
v -0.970000 1.312000 0.000000
v -0.970000 1.312000 -0.970000
vn -1.0000 -0.0000 -0.0000
vn -0.0000 -0.0000 -1.0000
vn 1.0000 -0.0000 -0.0000
vn -0.0000 -0.0000 1.0000
vn -0.0000 -1.0000 -0.0000
vn -0.0000 1.0000 -0.0000
vn -0.9997 0.0250 -0.0005
vn 0.7071 -0.0000 -0.7071
vn -0.7071 -0.0000 -0.7071
vn -0.0000 1.0000 -0.0010
vn 0.9997 0.0255 -0.0005
vn -0.0000 0.8575 0.5145
vn 0.0164 0.9999 -0.0005
vn -0.0000 -0.8575 -0.5145
vn -0.0000 -0.0507 -0.9987
vn -0.0002 1.0000 -0.0005
vt 0.323334 0.500000
vt 0.333334 0.500000
vt 0.333333 0.666667
vt 0.323334 0.666667
vt 0.794964 0.333333
vt 0.784965 0.333333
vt 0.784965 -0.000000
vt 0.794964 -0.000000
vt 0.776666 0.500000
vt 0.766666 0.500000
vt 0.766666 0.333333
vt 0.776666 0.333333
vt 0.784965 0.333333
vt 0.774965 0.333333
vt 0.774965 0.000000
vt 0.784965 0.000000
vt 0.165204 0.333333
vt 0.165204 -0.000000
vt 0.330408 -0.000000
vt 0.330408 0.333333
vt 0.658298 0.333333
vt 0.658298 0.000000
vt 0.333334 0.333333
vt 0.450000 0.333334
vt 0.450000 0.500000
vt 0.330408 0.333333
vt 0.330408 -0.000000
vt 0.335401 0.005000
vt 0.335401 0.328333
vt 0.911614 -0.000000
vt 0.911614 0.323334
vt 0.794964 0.323334
vt 0.794964 0.000000
vt 0.496850 0.004986
vt 0.496850 0.328319
vt 0.537000 0.990001
vt 0.537000 0.828334
vt 0.540000 0.828334
vt 0.540000 0.990151
vt 0.649999 0.500000
vt 0.550000 0.500000
vt 0.649999 0.333333
vt 0.649988 0.338334
vt 0.756689 0.990000
vt 0.756677 0.995001
vt 0.640011 0.995001
vt 0.640022 0.990000
vt 0.323334 0.828334
vt 0.323334 0.666667
vt 0.440000 0.666667
vt 0.440000 0.828334
vt 0.756689 0.828334
vt 0.640022 0.828334
vt 0.323345 0.995001
vt 0.323333 0.990000
vt 0.440000 0.990001
vt 0.440011 0.995001
vt 0.766666 0.666667
vt 0.650000 0.666667
vt 0.943307 0.338484
vt 0.948300 0.333483
vt 0.948300 0.666816
vt 0.943307 0.661817
vt 0.756689 0.666667
vt 0.640022 0.666667
vt 0.450000 0.666667
vt 0.550000 0.500000
vt 0.550000 0.666667
vt 0.658298 0.004972
vt 0.658298 0.328305
vt 0.000000 0.333333
vt 0.000000 -0.000000
vt 0.776666 0.666667
vt 0.323334 0.333333
vt 0.166442 0.995136
vt 0.004843 0.995150
vt 0.166442 0.994986
vt 0.004855 0.671518
vt 0.166442 0.671503
vt 0.166442 0.671653
vt 0.550000 0.666667
vt 0.540011 0.995001
vt 0.540011 0.995001
vt 0.540180 0.990147
vt 0.543023 0.990000
vt 0.543023 0.828334
vt 0.540023 0.828334
vt 0.776666 0.666667
vt 0.166442 0.999986
vt -0.000000 1.000000
vt -0.000000 0.666667
vt 0.166442 0.666653
vt 0.323334 0.493581
vt 0.323334 0.666653
vt 0.000000 0.666653
vt 0.000000 0.493581
vt 0.000000 0.333333
vt 0.323334 0.333333
vt 0.911771 0.323632
vt 0.911614 -0.000000
vt 0.914616 0.000150
vt 0.914616 0.323483
s 0
usemtl Материал
f 23/1/1 24/2/1 4/3/1 3/4/1
f 3/5/2 4/6/2 8/7/2 7/8/2
f 25/9/3 26/10/3 6/11/3 5/12/3
f 5/13/4 6/14/4 2/15/4 1/16/4
f 23/17/5 25/18/5 5/19/5 1/20/5
f 2/15/4 6/14/4 16/21/4 13/22/4
f 24/2/1 2/23/1 13/24/1 29/25/1
f 8/26/6 4/27/6 10/28/6 12/29/6
f 11/30/2 9/31/2 17/32/2 20/33/2
f 27/34/6 28/35/6 12/29/6 10/28/6
f 41/36/7 44/37/7 38/38/7 39/39/7
f 30/40/3 35/41/3 22/42/3 20/43/3 16/42/3
f 10/44/8 4/45/8 14/46/8 18/47/8
f 28/48/1 11/49/1 20/50/1 32/51/1
f 27/52/3 10/44/3 18/47/3 31/53/3
f 8/54/9 12/55/9 19/56/9 15/57/9
f 26/10/3 8/58/3 15/59/3 30/40/3
f 17/60/6 21/61/6 22/62/6 20/63/6
f 6/11/3 26/10/3 30/40/3 16/42/3
f 9/64/3 27/52/3 31/53/3 17/65/3
f 12/55/1 28/48/1 32/51/1 19/56/1
f 14/66/1 29/25/1 33/67/1 34/68/1
f 9/69/6 11/70/6 28/35/6 27/34/6
f 4/3/1 24/2/1 29/25/1 14/66/1
f 3/71/5 7/72/5 25/18/5 23/17/5
f 7/73/3 8/58/3 26/10/3 25/9/3
f 1/74/1 2/23/1 24/2/1 23/1/1
f 43/75/6 39/76/6 38/77/6
f 37/78/10 42/79/10 36/80/10
f 20/50/1 44/37/1 32/51/1
f 29/25/1 21/24/1 33/67/1
f 30/40/3 15/59/3 40/81/3 35/41/3
f 15/57/9 19/56/9 41/36/9 39/39/9 40/82/9
f 18/47/8 14/46/8 34/83/8 37/84/8 46/85/8
f 45/86/11 46/85/11 37/84/11 36/87/11
f 31/53/3 45/86/3 17/65/3
f 22/62/12 35/88/12 33/12/12 21/61/12
f 19/56/1 32/51/1 44/37/1 41/36/1
f 35/89/6 40/90/6 39/76/6 43/75/6
f 31/53/3 18/47/3 46/85/3 45/86/3
f 34/91/13 33/92/13 42/79/13 37/78/13
f 44/93/14 20/94/14 17/95/14 45/96/14
f 44/93/5 45/96/5 46/97/5 41/98/5
f 37/99/15 39/100/15 41/101/15 46/102/15
f 42/79/16 43/75/16 39/76/16 37/78/16
l 13 17
